<?xml version="1.0" encoding="UTF-8"?><svg id="Layer_2" xmlns="http://www.w3.org/2000/svg" viewBox="0 0 225 225"><defs><style>.cls-1{fill:#fff;}</style></defs><g id="Layer_1-2"><g id="KfNXga"><path class="cls-1" d="m0,225V0h225v225H0Zm22.5-61.82c-.07.06-.13.12-.2.18.49.96.97,1.92,1.47,2.88,6.06,11.68,13.98,21.77,25.05,29.12,11.6,7.7,24.47,11.35,38.29,11.58,6.93.11,13.77-1.06,20.46-2.88,10.57-2.87,20.37-7.49,29.51-13.45,20.1-13.11,36.86-29.68,50.65-49.27,6.21-8.82,11.24-18.28,14.68-28.54,3.94-11.74,5.47-23.73,3.53-36.04-1.23-7.79-3.71-15.17-7.46-22.12-7.4-13.7-18.63-23.38-32.19-30.6-.95-.5-1.92-.96-2.88-1.45,1.06,1.95,2.15,3.76,3.05,5.66,2.77,5.84,2.71,12.1,2.6,18.36-.12,7.04-1.96,13.73-4.24,20.31-4.99,14.42-12.76,27.33-21.96,39.41-11.09,14.58-24.03,27.3-38.77,38.19-10.12,7.47-20.82,13.91-32.52,18.59-9.46,3.78-19.17,6.38-29.47,6.17-5.96-.12-11.66-1.21-16.86-4.29-.95-.56-1.83-1.23-2.74-1.84Zm20.63-3.13c5.03.14,9.65-.76,14.2-1.98,3.4-.91,6.75-2.05,10.11-3.12.23-.07.5-.43.53-.68,1.84-12.17,6.61-23.22,12.95-33.65,8.27-13.58,18.91-25.02,31.77-34.36,12.43-9.03,25.94-15.72,41.26-18.29.36-.06.85-.45.95-.79,1.45-4.9,3.07-9.76,4.2-14.73,1.33-5.85,1.52-11.8-.13-17.68-1.79-6.37-5.73-10.65-12.15-12.6-6.2-1.88-12.43-1.41-18.66-.28-7.63,1.38-14.81,4.12-21.75,7.48-13.13,6.35-24.95,14.64-35.87,24.28-12.69,11.21-23.83,23.74-32.92,38.04-6.84,10.76-12.46,22.1-15.23,34.66-1.37,6.22-2.1,12.46-.63,18.8,1.3,5.59,4.16,9.97,9.4,12.52,3.84,1.87,7.98,2.57,11.97,2.38Z"/><path d="m22.5,163.18c.91.62,1.8,1.28,2.74,1.84,5.2,3.08,10.9,4.16,16.86,4.29,10.31.21,20.01-2.39,29.47-6.17,11.71-4.68,22.41-11.12,32.52-18.59,14.74-10.89,27.68-23.61,38.77-38.19,9.2-12.09,16.96-24.99,21.96-39.41,2.28-6.58,4.12-13.28,4.24-20.31.11-6.26.16-12.52-2.6-18.36-.9-1.9-1.99-3.72-3.05-5.66.96.48,1.93.94,2.88,1.45,13.56,7.22,24.79,16.89,32.19,30.6,3.75,6.95,6.23,14.33,7.46,22.12,1.94,12.31.41,24.3-3.53,36.04-3.44,10.26-8.47,19.72-14.68,28.54-13.79,19.59-30.56,36.16-50.65,49.27-9.15,5.96-18.95,10.58-29.51,13.45-6.69,1.82-13.53,2.99-20.46,2.88-13.82-.23-26.69-3.88-38.29-11.58-11.08-7.36-18.99-17.45-25.05-29.12-.5-.96-.98-1.92-1.47-2.88.07-.06.13-.12.2-.18Zm92.01,8.37c.16-.05.31-.1.47-.16.4.48.76,1.01,1.21,1.42,3.57,3.21,7.65,3.96,12.05,2.12,4.12-1.73,6.6-4.79,6.8-9.45.07-1.63.33-3.25.49-4.78,1.6.57,2.99,1.07,4.43,1.58,0,.05.03.22,0,.38-.39,1.87.11,3.27,1.42,4.01,1.4.79,3.23.59,4.43-.78,1.38-1.59,2.73-3.27,3.77-5.09,2.58-4.52,3.91-9.35,2.91-14.62-.25-1.31-.53-2.61-.84-4.1,3.25,2.12,4.27,2.52,8.98,1.95,4.9-.59,9.03-4.86,9.35-9.78.19-2.98.02-5.99-.14-8.97-.11-2.09-.48-4.17-.75-6.38.47.08.87.17,1.27.21,1.56.14,3.14.52,4.67.35,6.68-.75,12.43-7.4,8.46-15.96-.67-1.45-2.39-2.2-3.87-1.83-1.76.44-2.73,1.6-2.63,3.41.05.98.48,1.94.55,2.92.05.83.03,1.77-.31,2.49-.9,1.89-3.79,2.58-5.8,1.54-2.14-1.11-3-3.43-1.95-5.47.4-.77.99-1.43,1.48-2.15,1.06-1.54.87-3.27-.48-4.5-1.39-1.26-3.24-1.35-4.64-.16-1.99,1.68-3.45,3.86-3.54,6.39-.2,5.31-.06,10.64.1,15.96.1,3.24.53,6.47.74,9.71.12,1.84-.33,3.6-1.98,4.59-2.4,1.45-5.56,1.61-6.13-2.24-.31-2.07-.09-4.1,1.25-5.82.64-.82.79-1.68.75-2.67-.11-2.52-2.33-3.98-4.62-2.91-2.31,1.07-3.89,2.97-5.16,5.1-3.05,5.09-3.53,10.55-2.41,16.28.5,2.56,1.26,5.1.66,7.77-.45,2.01-1.55,3.15-3.36,3.32-1.82.17-3.58-.88-4.3-2.59-.72-1.71-.34-3.22.75-4.67.58-.78,1.22-1.65,1.38-2.56.26-1.42-.47-2.61-1.75-3.32-1.37-.76-3.03-.55-4.18.46-1.85,1.63-2.86,3.78-3.5,6.09-1.46,5.27-2.07,10.69-2.48,16.13-.18,2.37-1.98,4.06-4.36,4.03-2.12-.02-3.98-1.87-4.23-4.03-.21-1.76.82-2.88,1.74-4.11,1.17-1.57,1.04-3.08-.34-4.46-1.45-1.46-3.09-1.56-4.67-.25-.45.37-.84.8-1.25,1.22-4.59,4.73-6.92,10.6-8.45,16.86-.45,1.85-.75,3.76-1.36,5.56-.56,1.69-1.96,2.56-3.74,2.64-1.92.09-3.34-.92-4.11-2.55-.7-1.49-.56-3.07.62-4.43.43-.5.82-1.06,1.11-1.65.98-1.98-.04-4.23-2.14-4.87-1.62-.49-2.84.19-3.89,1.31-3.09,3.29-3.6,7.16-2.59,11.39.67,2.81-.19,4.51-2.8,5.67-1.76.79-2.64,2.63-2.05,4.3.68,1.9,2.41,2.85,4.36,2.34,2.67-.71,4.66-2.36,6.04-4.71.41-.69.7-.77,1.45-.56,5.72,1.56,9.99.49,13.13-4.09,1.11-1.62,1.61-3.71,2.18-5.64.71-2.37,1.2-4.81,1.79-7.22Z"/><path d="m43.13,160.04c-3.99.19-8.12-.51-11.97-2.38-5.23-2.55-8.1-6.93-9.4-12.52-1.47-6.34-.74-12.58.63-18.8,2.76-12.56,8.39-23.89,15.23-34.66,9.09-14.3,20.24-26.83,32.92-38.04,10.92-9.65,22.74-17.93,35.87-24.28,6.94-3.36,14.12-6.1,21.75-7.48,6.23-1.12,12.46-1.6,18.66.28,6.41,1.95,10.36,6.23,12.15,12.6,1.65,5.88,1.46,11.82.13,17.68-1.13,4.97-2.75,9.83-4.2,14.73-.1.34-.59.73-.95.79-15.32,2.57-28.83,9.26-41.26,18.29-12.85,9.34-23.5,20.78-31.77,34.36-6.35,10.42-11.12,21.47-12.95,33.65-.04.26-.3.61-.53.68-3.36,1.07-6.71,2.21-10.11,3.12-4.55,1.22-9.16,2.11-14.2,1.98Zm14.7-48.21c.56.17.9.26,1.23.39,6.71,2.59,14.24-2,14.95-9.14.36-3.6.64-7.22,1.03-10.82.18-1.67.56-3.31.86-4.98.28.08.37.09.44.14.14.09.27.19.4.29,2.85,2.39,6.2,2.88,9.65,2.09,4.76-1.09,7.49-4.3,8.62-9.02.94-3.93,2.04-7.83,3.1-11.82.35.19.56.26.7.39,2.31,2.15,5.09,2.83,8.17,2.71,4.66-.18,8.7-3.31,10.08-7.78.96-3.11,2.09-6.17,3.17-9.36.32.25.55.42.76.61,3.13,2.86,6.76,3.91,10.85,2.72,4.21-1.22,6.9-4.05,7.96-8.33.55-2.23-.6-4.2-2.69-4.76-1.95-.52-3.39.51-4.12,2.94-.42,1.42-1.17,2.57-2.61,3.14-2.41.95-4.92-.24-5.72-2.7-.81-2.47.62-4.81,3.38-5.54,2.09-.55,3.24-2.13,2.84-3.87-.51-2.21-2.29-3.44-4.43-3.03-3.15.6-5.54,2.35-7.34,4.97-2.76,4.03-4.4,8.57-6.08,13.09-1,2.69-1.81,5.45-2.83,8.12-.8,2.1-2.74,3.08-4.93,2.73-1.58-.25-3.07-1.85-3.27-3.51-.27-2.25.68-3.88,2.79-4.74.46-.19.94-.34,1.39-.56,1.66-.8,2.39-2.67,1.75-4.46-.52-1.47-2.34-2.46-3.95-2.14-3.64.73-6.35,2.78-7.89,6.11-1.68,3.61-3.3,7.28-4.55,11.05-1.42,4.29-2.4,8.73-3.59,13.1-.53,1.94-2.37,3.33-4.23,3.25-2.13-.09-3.86-1.59-4.19-3.62-.34-2.07.68-3.86,2.67-4.7.46-.19.93-.35,1.39-.56,1.72-.77,2.56-2.49,2.01-4.05-.73-2.07-2.39-3-4.37-2.55-3.19.73-5.55,2.6-7.26,5.31-3.61,5.73-5.16,12.13-5.93,18.75-.41,3.51-.62,7.05-1.01,10.57-.35,3.15-4.08,4.78-6.62,2.97-2.48-1.77-2.58-4.87-.31-6.94.72-.66,1.54-1.39,1.87-2.26.59-1.56-.11-3.16-1.43-4.06-1.37-.94-2.58-.89-4.15.23-2.67,1.9-4.4,4.44-4.86,7.7-.99,7.14-.51,14.29-.13,21.45.14,2.57.42,5.15.32,7.71-.08,1.98-2.06,3.62-4.05,3.84-1.61.18-3.68-1.25-4.37-2.98-.73-1.84.02-3.29,1.12-4.71,1.68-2.18,1.02-4.69-1.47-5.71-1.55-.64-2.8.03-3.82,1.1-2.62,2.75-3.55,6.12-2.98,9.8.84,5.49,5.71,9.49,11.34,9.57,5.07.07,9.92-3.95,11.08-9.15.83-3.75.14-7.46-.15-11.19-.2-2.52-.36-5.04-.56-7.78Z"/><path class="cls-1" d="m114.51,171.55c-.59,2.41-1.08,4.85-1.79,7.22-.58,1.93-1.07,4.02-2.18,5.64-3.14,4.58-7.41,5.64-13.13,4.09-.75-.21-1.05-.13-1.45.56-1.38,2.35-3.37,4-6.04,4.71-1.94.52-3.68-.43-4.36-2.34-.59-1.67.28-3.51,2.05-4.3,2.61-1.16,3.47-2.87,2.8-5.67-1.01-4.23-.5-8.1,2.59-11.39,1.06-1.12,2.27-1.81,3.89-1.31,2.1.64,3.12,2.89,2.14,4.87-.29.59-.68,1.15-1.11,1.65-1.18,1.36-1.33,2.94-.62,4.43.77,1.62,2.18,2.64,4.11,2.55,1.78-.09,3.18-.95,3.74-2.64.6-1.8.9-3.71,1.36-5.56,1.53-6.26,3.85-12.13,8.45-16.86.41-.42.8-.85,1.25-1.22,1.58-1.3,3.21-1.21,4.67.25,1.38,1.38,1.51,2.89.34,4.46-.92,1.23-1.95,2.36-1.74,4.11.26,2.15,2.11,4,4.23,4.03,2.38.03,4.18-1.66,4.36-4.03.41-5.44,1.01-10.86,2.48-16.13.64-2.3,1.65-4.46,3.5-6.09,1.15-1.01,2.82-1.22,4.18-.46,1.28.71,2,1.9,1.75,3.32-.16.91-.81,1.78-1.38,2.56-1.08,1.45-1.46,2.97-.75,4.67.72,1.71,2.48,2.76,4.3,2.59,1.81-.17,2.91-1.31,3.36-3.32.6-2.67-.16-5.21-.66-7.77-1.12-5.72-.64-11.19,2.41-16.28,1.28-2.13,2.85-4.03,5.16-5.1,2.29-1.06,4.5.4,4.62,2.91.04.99-.11,1.85-.75,2.67-1.34,1.72-1.55,3.74-1.25,5.82.57,3.85,3.73,3.69,6.13,2.24,1.65-1,2.1-2.75,1.98-4.59-.22-3.24-.65-6.47-.74-9.71-.16-5.32-.29-10.65-.1-15.96.09-2.53,1.56-4.71,3.54-6.39,1.4-1.18,3.25-1.1,4.64.16,1.35,1.23,1.54,2.96.48,4.5-.49.72-1.09,1.38-1.48,2.15-1.05,2.04-.19,4.36,1.95,5.47,2.01,1.04,4.9.35,5.8-1.54.34-.72.37-1.66.31-2.49-.06-.98-.49-1.94-.55-2.92-.1-1.81.86-2.96,2.63-3.41,1.48-.37,3.19.38,3.87,1.83,3.97,8.56-1.78,15.21-8.46,15.96-1.52.17-3.11-.21-4.67-.35-.4-.04-.8-.13-1.27-.21.27,2.21.63,4.29.75,6.38.16,2.99.33,6,.14,8.97-.32,4.92-4.45,9.19-9.35,9.78-4.71.57-5.74.17-8.98-1.95.31,1.49.59,2.8.84,4.1,1,5.26-.32,10.1-2.91,14.62-1.04,1.82-2.39,3.5-3.77,5.09-1.2,1.37-3.02,1.57-4.43.78-1.31-.74-1.8-2.14-1.42-4.01.03-.16,0-.33,0-.38-1.44-.51-2.83-1.01-4.43-1.58-.16,1.54-.42,3.16-.49,4.78-.2,4.66-2.68,7.72-6.8,9.45-4.4,1.84-8.48,1.09-12.05-2.12-.46-.41-.81-.95-1.21-1.42-.16.05-.31.1-.47.16Z"/><path class="cls-1" d="m57.83,111.84c.2,2.74.37,5.26.56,7.78.29,3.73.98,7.44.15,11.19-1.15,5.19-6,9.22-11.08,9.15-5.63-.08-10.49-4.09-11.34-9.57-.57-3.67.36-7.05,2.98-9.8,1.02-1.07,2.27-1.73,3.82-1.1,2.49,1.02,3.15,3.53,1.47,5.71-1.09,1.42-1.85,2.87-1.12,4.71.69,1.73,2.76,3.16,4.37,2.98,1.99-.22,3.97-1.86,4.05-3.84.1-2.56-.18-5.14-.32-7.71-.38-7.15-.87-14.31.13-21.45.45-3.26,2.19-5.8,4.86-7.7,1.57-1.11,2.78-1.16,4.15-.23,1.32.91,2.02,2.51,1.43,4.06-.33.87-1.15,1.6-1.87,2.26-2.28,2.07-2.17,5.18.31,6.94,2.54,1.82,6.27.18,6.62-2.97.39-3.52.6-7.05,1.01-10.57.78-6.62,2.33-13.02,5.93-18.75,1.71-2.71,4.06-4.58,7.26-5.31,1.97-.45,3.63.49,4.37,2.55.55,1.56-.3,3.28-2.01,4.05-.45.2-.93.36-1.39.56-1.99.84-3.01,2.63-2.67,4.7.33,2.03,2.06,3.52,4.19,3.62,1.86.08,3.7-1.31,4.23-3.25,1.19-4.37,2.17-8.81,3.59-13.1,1.25-3.77,2.88-7.44,4.55-11.05,1.54-3.32,4.25-5.38,7.89-6.11,1.61-.32,3.43.67,3.95,2.14.63,1.78-.1,3.66-1.75,4.46-.45.22-.93.37-1.39.56-2.11.86-3.06,2.49-2.79,4.74.2,1.66,1.69,3.26,3.27,3.51,2.19.35,4.12-.63,4.93-2.73,1.03-2.68,1.83-5.44,2.83-8.12,1.68-4.52,3.33-9.06,6.08-13.09,1.8-2.63,4.19-4.37,7.34-4.97,2.13-.41,3.91.83,4.43,3.03.41,1.74-.75,3.32-2.84,3.87-2.76.73-4.19,3.07-3.38,5.54.8,2.46,3.32,3.65,5.72,2.7,1.44-.57,2.19-1.73,2.61-3.14.73-2.43,2.16-3.47,4.12-2.94,2.09.56,3.25,2.53,2.69,4.76-1.06,4.28-3.75,7.11-7.96,8.33-4.09,1.19-7.72.14-10.85-2.72-.21-.19-.44-.35-.76-.61-1.09,3.18-2.21,6.25-3.17,9.36-1.38,4.47-5.42,7.6-10.08,7.78-3.09.12-5.86-.56-8.17-2.71-.14-.13-.35-.2-.7-.39-1.05,3.99-2.16,7.89-3.1,11.82-1.13,4.72-3.86,7.93-8.62,9.02-3.45.79-6.8.3-9.65-2.09-.13-.11-.26-.21-.4-.29-.07-.04-.16-.05-.44-.14-.29,1.67-.67,3.32-.86,4.98-.4,3.6-.67,7.21-1.03,10.82-.71,7.14-8.24,11.73-14.95,9.14-.33-.13-.67-.21-1.23-.39Z"/></g></g></svg>